HIERARCHY
ROOT pelvis
{
  OFFSET 0 100 0
  CHANNELS 6 Xposition Yposition Zposition Zrotation Xrotation Yrotation
  JOINT pelvis_right_femur
  {
    OFFSET -10.78128 -3.44521 -0.5502486
    CHANNELS 3 Zrotation Xrotation Yrotation
    JOINT right_femur_tibia
    {
      OFFSET -0.8047443 -44.0398 -0.1307829
      CHANNELS 3 Zrotation Xrotation Yrotation
      JOINT right_tibia_foot
      {
        OFFSET 3.006224 -47.83518 -5
        CHANNELS 3 Zrotation Xrotation Yrotation
        End Site
        {
          OFFSET 0 -5 15
        }
      }
    }
  }
  JOINT pelvis_left_femur
  {
    OFFSET 10.78128 -3.44521 -0.5502486
    CHANNELS 3 Zrotation Xrotation Yrotation
    JOINT left_femur_tibia
    {
      OFFSET 0.8047443 -44.0398 -0.1307829
      CHANNELS 3 Zrotation Xrotation Yrotation
      JOINT left_tibia_foot
      {
        OFFSET -4.370144 -48.10324 -4.275266
        CHANNELS 3 Zrotation Xrotation Yrotation
        End Site
        {
          OFFSET 0 -5 15
        }
      }
    }
  }
  JOINT pelvis_spine1
  {
    OFFSET 0 6.468898 -3.129235
    CHANNELS 3 Zrotation Xrotation Yrotation
    JOINT spine1
    {
      OFFSET 0 23.15396 4.99043
      CHANNELS 3 Zrotation Xrotation Yrotation
      JOINT spine2
      {
        OFFSET 0 20.79997 -5.064912
        CHANNELS 3 Zrotation Xrotation Yrotation
        JOINT neck
        {
          OFFSET 0 14.38658 9.616178
          CHANNELS 3 Zrotation Xrotation Yrotation
          End Site
          {
            OFFSET 0 20 0
          }
        }
      }
      JOINT right_manubrium
      {
        OFFSET -5.722621 16.35077 3.967754
        CHANNELS 3 Zrotation Xrotation Yrotation
        JOINT right_clavicle
        {
          OFFSET -13.16364 1.694482 -4.693211
          CHANNELS 3 Zrotation Xrotation Yrotation
          JOINT right_humerus
          {
            OFFSET -28.5034 -0.3100689 -2.792744
            CHANNELS 3 Zrotation Xrotation Yrotation
            JOINT right_radius
            {
              OFFSET -25.15693 0.02248979 -1.271978
              CHANNELS 3 Zrotation Xrotation Yrotation
              End Site
              {
                OFFSET -15 0 0
              }
            }
          }
        }
      }
      JOINT left_manubrium
      {
        OFFSET 5.722621 16.35077 3.967754
        CHANNELS 3 Zrotation Xrotation Yrotation
        JOINT left_clavicle
        {
          OFFSET 13.16364 1.694482 -4.693211
          CHANNELS 3 Zrotation Xrotation Yrotation
          JOINT left_humerus
          {
            OFFSET 29.39168 -1.063119 -2.237045
            CHANNELS 3 Zrotation Xrotation Yrotation
            JOINT left_radius
            {
              OFFSET 24.59957 -0.9528479 0.9047498
              CHANNELS 3 Zrotation Xrotation Yrotation
              End Site
              {
                OFFSET 15 -0 -0
              }
            }
          }
        }
      }
    }
  }
}
MOTION
Frames: 13
Frame Time: 0.0416666666667
0 103.5113 0 2.603669 -1.989927 0.1445757 1.058058 -11.7591 7.788222 -0 36.39036 -0 -4.434011 -18.74347 -3.421448 -8.045537 11.63337 -23.7859 -0 4.237205 -0 8.030468 -15.95244 25.86057 -1.834167 -3.289351 5.427198 2.73473 10.06214 -7.877225 1.545753 21.08968 6.063992 2.819331 -26.08684 9.369378 6.362388 -19.38466 11.55186 85.81621 34.99642 -20.07098 -0 0 16.01353 -5.355071 7.698131 3.457731 5.97129 -20.55011 -0.9763589 -95.69839 25.85311 24.80042 0 0 -14.2684 8.969427 16.96949 3.660235
0.2575609 103.5784 1.336057 1.823741 -1.252055 0.06360322 2.279155 -14.0987 8.895627 -0 36.94108 -0 -4.304162 -18.12785 -3.701518 -7.541749 11.35501 -23.90313 -0 4.688589 -0 7.212461 -16.9019 26.37363 -1.820981 -3.243755 5.423134 2.718379 10.06938 -7.85155 1.534842 21.12048 6.045164 2.815294 -26.01837 9.32121 6.354389 -19.33865 11.54206 85.818 35.00504 -20.03723 -0 0 15.9189 -5.43142 7.723907 3.522626 5.928813 -20.5315 -1.022001 -95.64307 25.88526 24.74628 0 0 -14.29878 8.885419 16.90917 3.747125
0.5047741 103.5859 2.898144 0.9095599 -0.5451356 -0.02445405 3.586011 -17.85493 8.612722 -0 35.15816 -0 -5.037486 -15.87411 -3.521912 -6.8982 11.45817 -23.13717 -0 5.072167 -0 5.909163 -18.61882 25.70768 -1.740239 -2.929098 5.287191 2.785457 10.17781 -7.899021 1.467598 20.966 6.199281 2.932932 -26.01095 9.252907 6.291875 -19.10433 11.59288 86.09652 35.16836 -20.18499 -0 0 15.19504 -5.940547 8.1647 3.857107 5.943741 -20.66032 -1.140285 -94.83284 25.22514 23.84299 0 0 -15.07312 9.301979 16.07972 3.339865
0.7517355 103.5284 4.637134 0.223904 0.2418024 -0.1017914 4.70071 -21.08668 8.78084 -0 33.48048 -0 -5.32435 -14.30254 -3.492369 -6.464674 11.42689 -22.50369 -0 5.284395 -0 5.235492 -19.8961 25.25113 -1.654423 -2.848312 5.27085 2.880306 10.23974 -8.048405 1.418845 20.74535 6.321844 3.02119 -26.22562 9.263294 6.252607 -19.12022 11.66427 86.42956 35.23119 -20.67302 -0 0 15.00227 -5.843858 8.211357 3.789905 6.015025 -20.85418 -1.208014 -94.58066 25.09475 23.66626 0 0 -15.95082 9.402269 15.61001 3.402013
1.003341 103.3317 6.654118 -0.2736174 1.140973 -0.1277043 5.613491 -24.52577 8.602448 -0 30.46814 -0 -5.522099 -12.54086 -3.314799 -6.199719 11.53935 -21.5893 -0 5.359793 -0 5.07855 -21.07607 24.58317 -1.569139 -2.770611 5.247443 2.984641 10.29681 -8.209337 1.369295 20.50125 6.462542 3.12019 -26.46392 9.288272 6.209781 -19.1403 11.73941 86.77414 35.30864 -21.17987 -0 0 14.80481 -5.744779 8.271923 3.72286 6.106004 -21.06412 -1.267152 -94.29548 24.92305 23.45398 0 0 -16.89358 9.556574 15.11358 3.411468
1.257184 102.9707 9.001996 -0.6072816 2.076586 -0.07520321 6.340055 -27.77385 8.345228 -0 26.88806 -0 -5.572168 -10.82883 -3.091092 -6.068392 11.78143 -20.64321 -0 5.497371 -0 5.231018 -22.06331 23.89383 -1.466904 -2.696099 5.233724 3.092583 10.35793 -8.386822 1.312062 20.22965 6.609316 3.230966 -26.71859 9.302609 6.161963 -19.17265 11.82031 87.16143 35.39704 -21.76314 -0 0 14.60792 -5.614047 8.315677 3.642133 6.20178 -21.30259 -1.350674 -94.00701 24.79557 23.27008 0 0 -17.98465 9.664075 14.57347 3.507285
1.506929 102.4474 11.76601 -0.8273828 3.003895 0.09022054 6.909818 -30.81197 7.922383 -0 22.91911 -0 -5.618021 -8.935212 -2.752315 -6.026295 12.22909 -19.65544 -0 5.94096 -0 5.558242 -22.80802 23.11746 -1.35718 -2.590696 5.202225 3.195847 10.42211 -8.556823 1.248556 19.95714 6.761015 3.351924 -26.93253 9.294481 6.104734 -19.16489 11.89626 87.56431 35.50153 -22.33742 -0 0 14.32036 -5.570309 8.415895 3.622093 6.292805 -21.54825 -1.460475 -93.61942 24.62158 22.96818 0 0 -19.15763 9.780569 13.9568 3.589457
1.74729 101.8146 15.03428 -1.027552 3.858213 0.4059484 7.410476 -33.47173 7.40013 -0 19.18191 -0 -5.808972 -6.776185 -2.274967 -5.994458 12.86571 -18.68751 -0 6.999252 -0 5.769058 -23.20009 22.16237 -1.239368 -2.457037 5.154228 3.287159 10.49165 -8.714854 1.179943 19.69648 6.905592 3.477904 -27.08174 9.251636 6.039888 -19.11043 11.96349 87.98136 35.60946 -22.90114 -0 0 13.94086 -5.626526 8.572827 3.665518 6.371604 -21.79801 -1.606071 -93.14287 24.42685 22.55324 0 0 -20.38936 9.866682 13.28041 3.696872
1.977286 101.1713 18.91012 -1.310019 4.570699 0.9076597 7.909872 -35.54731 6.78354 -0 16.1952 -0 -6.280396 -4.317447 -1.626625 -5.875546 13.63478 -17.71847 -0 9.031285 -0 5.419786 -23.08664 20.75511 -1.122476 -2.288251 5.081298 3.355001 10.5667 -8.844066 1.11026 19.48124 7.025295 3.596293 -27.11554 9.159578 5.968791 -18.98388 12.01276 88.38784 35.69776 -23.4025 -0 0 13.44599 -5.840743 8.808936 3.799763 6.423511 -22.03138 -1.789579 -92.56751 24.20608 21.98407 0 0 -21.57964 9.900847 12.57075 3.8242
2.203499 100.6542 23.49059 -1.758531 5.071595 1.600772 8.440123 -36.6648 6.132294 -0 14.38196 -0 -7.007862 -1.832486 -0.8746833 -5.561006 14.37978 -16.69519 -0 12.41073 -0 3.92544 -22.24028 18.54806 -1.014359 -2.087134 4.987657 3.383321 10.65317 -8.928454 1.044019 19.34928 7.094429 3.690619 -26.98336 8.999768 5.896905 -18.77524 12.03753 88.7586 35.72924 -23.80013 -0 0 12.84899 -6.252306 9.123738 4.034963 6.428973 -22.22683 -2.015133 -91.92945 23.99249 21.28029 0 0 -22.60041 9.818389 11.87885 4.021111
2.437814 100.4143 28.82479 -2.378794 5.292057 2.411278 8.965151 -36.27442 5.59666 -0 13.87406 -0 -7.699216 0.01855573 -0.2806765 -4.970742 14.83175 -15.52052 -0 17.46599 -0 0.8793983 -20.31678 15.38874 -0.9266452 -1.864452 4.892244 3.350479 10.76108 -8.946985 0.9859818 19.34372 7.083389 3.741633 -26.63863 8.755068 5.834842 -18.49566 12.03526 89.05032 35.66367 -24.03337 -0 0 12.21185 -6.890983 9.497766 4.374371 6.363381 -22.35382 -2.279279 -91.312 23.8402 20.5301 0 0 -23.26917 9.53206 11.28267 4.365564
2.68407 100.5821 34.84396 -3.046554 5.139346 3.141737 9.398587 -33.84772 5.425299 -0 14.49269 -0 -7.928941 0.3703382 -0.2721611 -4.127603 14.63126 -14.10619 -0 24.35855 -0 -3.26852 -16.98743 11.83837 -0.8731164 -1.647639 4.838587 3.234511 10.89854 -8.879182 0.9369474 19.49004 6.973504 3.73734 -26.07605 8.421994 5.798846 -18.2044 12.01367 89.19887 35.49603 -24.03113 -0 0 11.68184 -7.741159 9.879336 4.805561 6.20695 -22.38113 -2.561738 -90.85845 23.82925 19.93908 0 0 -23.41098 8.951277 10.87943 4.96013
2.922305 101.2432 41.31606 -3.52983 4.457393 3.501448 9.653784 -29.39072 5.713042 -0 15.84859 -0 -7.718521 -1.138633 -1.024784 -3.235619 13.40954 -12.46322 -0 33.06165 -0 -6.866158 -12.47602 9.243283 -0.8760972 -1.468473 4.872203 3.02811 11.04301 -8.705883 0.8919579 19.78476 6.776377 3.677355 -25.35214 8.028692 5.795341 -17.98949 11.98277 89.11075 35.29386 -23.6887 -0 0 11.43756 -8.742216 10.20429 5.320559 5.955523 -22.27496 -2.80948 -90.69526 24.01558 19.73067 0 0 -22.94187 8.0657 10.74487 5.825977
